<svg xmlns="http://www.w3.org/2000/svg" xmlns:xlink="http://www.w3.org/1999/xlink" width="1000" height="1000" viewBox="25 29 1000 1000"><defs><clipPath id="a"><rect width="1444" height="1435" fill="none"/></clipPath><clipPath id="c"><rect x="25" y="29" width="1000" height="1000"/></clipPath></defs><g id="b" clip-path="url(#c)"><g transform="translate(-492.88 546.682) rotate(-45)" clip-path="url(#a)"><g transform="translate(222)"><rect width="1444" height="46" transform="translate(-222)" fill="#fff"/></g><g transform="translate(222 92)"><rect width="1444" height="46" transform="translate(-222)" fill="#fff"/></g><g transform="translate(222 184)"><rect width="1444" height="46" transform="translate(-222)" fill="#fff"/></g><g transform="translate(222 276)"><rect width="1444" height="46" transform="translate(-222)" fill="#fff"/></g><g transform="translate(222 368)"><rect width="1444" height="46" transform="translate(-222)" fill="#fff"/></g><g transform="translate(222 460)"><rect width="1444" height="46" transform="translate(-222)" fill="#fff"/></g><g transform="translate(222 552)"><rect width="1444" height="46" transform="translate(-222)" fill="#fff"/></g><g transform="translate(222 644)"><rect width="1444" height="46" transform="translate(-222)" fill="#fff"/></g><g transform="translate(222 736)"><rect width="1444" height="46" transform="translate(-222)" fill="#fff"/></g><g transform="translate(222 828)"><rect width="1444" height="46" transform="translate(-222)" fill="#fff"/></g><g transform="translate(222 920)"><rect width="1444" height="46" transform="translate(-222)" fill="#fff"/></g><g transform="translate(222 1012)"><rect width="1444" height="46" transform="translate(-222)" fill="#fff"/></g><g transform="translate(222 1104)"><rect width="1444" height="46" transform="translate(-222)" fill="#fff"/></g><g transform="translate(222 1196)"><rect width="1444" height="46" transform="translate(-222)" fill="#fff"/></g><g transform="translate(222 1288)"><rect width="1444" height="46" transform="translate(-222)" fill="#fff"/></g><g transform="translate(222 1380)"><rect width="1444" height="46" transform="translate(-222)" fill="#fff"/></g></g></g></svg>