<svg xmlns="http://www.w3.org/2000/svg" xmlns:xlink="http://www.w3.org/1999/xlink" width="1000" height="1000" viewBox="25 29 1000 1000"><defs><clipPath id="a"><rect width="1007" height="1008" fill="none"/></clipPath><clipPath id="c"><rect x="25" y="29" width="1000" height="1000"/></clipPath></defs><g id="b" clip-path="url(#c)"><g transform="translate(25 29)" clip-path="url(#a)"><g transform="translate(-477 -279)"><rect width="93.4" height="11.675" transform="translate(477 319.862)" fill="#fff"/><rect width="93.4" height="11.675" transform="translate(529.537 279) rotate(90)" fill="#fff"/></g><g transform="translate(-348 -279)"><rect width="93.4" height="11.675" transform="translate(477 319.862)" fill="#fff"/><rect width="93.4" height="11.675" transform="translate(529.537 279) rotate(90)" fill="#fff"/></g><g transform="translate(-219 -279)"><rect width="93.4" height="11.675" transform="translate(477 319.862)" fill="#fff"/><rect width="93.4" height="11.675" transform="translate(529.537 279) rotate(90)" fill="#fff"/></g><g transform="translate(-90 -279)"><rect width="93.4" height="11.675" transform="translate(477 319.862)" fill="#fff"/><rect width="93.4" height="11.675" transform="translate(529.537 279) rotate(90)" fill="#fff"/></g><g transform="translate(39 -279)"><rect width="93.4" height="11.675" transform="translate(477 319.862)" fill="#fff"/><rect width="93.4" height="11.675" transform="translate(529.537 279) rotate(90)" fill="#fff"/></g><g transform="translate(168 -279)"><rect width="93.4" height="11.675" transform="translate(477 319.862)" fill="#fff"/><rect width="93.4" height="11.675" transform="translate(529.537 279) rotate(90)" fill="#fff"/></g><g transform="translate(297 -279)"><rect width="93.4" height="11.675" transform="translate(477 319.862)" fill="#fff"/><rect width="93.4" height="11.675" transform="translate(529.537 279) rotate(90)" fill="#fff"/></g><g transform="translate(426 -279)"><rect width="93.4" height="11.675" transform="translate(477 319.862)" fill="#fff"/><rect width="93.4" height="11.675" transform="translate(529.537 279) rotate(90)" fill="#fff"/></g><g transform="translate(-477 -150)"><rect width="93.4" height="11.675" transform="translate(477 319.862)" fill="#fff"/><rect width="93.4" height="11.675" transform="translate(529.537 279) rotate(90)" fill="#fff"/></g><g transform="translate(-348 -150)"><rect width="93.4" height="11.675" transform="translate(477 319.862)" fill="#fff"/><rect width="93.4" height="11.675" transform="translate(529.537 279) rotate(90)" fill="#fff"/></g><g transform="translate(-219 -150)"><rect width="93.4" height="11.675" transform="translate(477 319.862)" fill="#fff"/><rect width="93.4" height="11.675" transform="translate(529.537 279) rotate(90)" fill="#fff"/></g><g transform="translate(-90 -150)"><rect width="93.4" height="11.675" transform="translate(477 319.862)" fill="#fff"/><rect width="93.4" height="11.675" transform="translate(529.537 279) rotate(90)" fill="#fff"/></g><g transform="translate(39 -150)"><rect width="93.4" height="11.675" transform="translate(477 319.862)" fill="#fff"/><rect width="93.4" height="11.675" transform="translate(529.537 279) rotate(90)" fill="#fff"/></g><g transform="translate(168 -150)"><rect width="93.4" height="11.675" transform="translate(477 319.862)" fill="#fff"/><rect width="93.4" height="11.675" transform="translate(529.537 279) rotate(90)" fill="#fff"/></g><g transform="translate(297 -150)"><rect width="93.4" height="11.675" transform="translate(477 319.862)" fill="#fff"/><rect width="93.4" height="11.675" transform="translate(529.537 279) rotate(90)" fill="#fff"/></g><g transform="translate(426 -150)"><rect width="93.4" height="11.675" transform="translate(477 319.862)" fill="#fff"/><rect width="93.4" height="11.675" transform="translate(529.537 279) rotate(90)" fill="#fff"/></g><g transform="translate(-477 -21)"><rect width="93.4" height="11.675" transform="translate(477 319.862)" fill="#fff"/><rect width="93.4" height="11.675" transform="translate(529.537 279) rotate(90)" fill="#fff"/></g><g transform="translate(-348 -21)"><rect width="93.4" height="11.675" transform="translate(477 319.862)" fill="#fff"/><rect width="93.4" height="11.675" transform="translate(529.537 279) rotate(90)" fill="#fff"/></g><g transform="translate(-219 -21)"><rect width="93.4" height="11.675" transform="translate(477 319.862)" fill="#fff"/><rect width="93.4" height="11.675" transform="translate(529.537 279) rotate(90)" fill="#fff"/></g><g transform="translate(-90 -21)"><rect width="93.4" height="11.675" transform="translate(477 319.862)" fill="#fff"/><rect width="93.4" height="11.675" transform="translate(529.537 279) rotate(90)" fill="#fff"/></g><g transform="translate(39 -21)"><rect width="93.4" height="11.675" transform="translate(477 319.862)" fill="#fff"/><rect width="93.4" height="11.675" transform="translate(529.537 279) rotate(90)" fill="#fff"/></g><g transform="translate(168 -21)"><rect width="93.4" height="11.675" transform="translate(477 319.862)" fill="#fff"/><rect width="93.4" height="11.675" transform="translate(529.537 279) rotate(90)" fill="#fff"/></g><g transform="translate(297 -21)"><rect width="93.4" height="11.675" transform="translate(477 319.862)" fill="#fff"/><rect width="93.4" height="11.675" transform="translate(529.537 279) rotate(90)" fill="#fff"/></g><g transform="translate(426 -21)"><rect width="93.4" height="11.675" transform="translate(477 319.862)" fill="#fff"/><rect width="93.4" height="11.675" transform="translate(529.537 279) rotate(90)" fill="#fff"/></g><g transform="translate(-477 108)"><rect width="93.4" height="11.675" transform="translate(477 319.862)" fill="#fff"/><rect width="93.4" height="11.675" transform="translate(529.537 279) rotate(90)" fill="#fff"/></g><g transform="translate(-348 108)"><rect width="93.4" height="11.675" transform="translate(477 319.862)" fill="#fff"/><rect width="93.4" height="11.675" transform="translate(529.537 279) rotate(90)" fill="#fff"/></g><g transform="translate(-219 108)"><rect width="93.4" height="11.675" transform="translate(477 319.862)" fill="#fff"/><rect width="93.4" height="11.675" transform="translate(529.537 279) rotate(90)" fill="#fff"/></g><g transform="translate(-90 108)"><rect width="93.4" height="11.675" transform="translate(477 319.862)" fill="#fff"/><rect width="93.4" height="11.675" transform="translate(529.537 279) rotate(90)" fill="#fff"/></g><g transform="translate(39 108)"><rect width="93.4" height="11.675" transform="translate(477 319.862)" fill="#fff"/><rect width="93.4" height="11.675" transform="translate(529.537 279) rotate(90)" fill="#fff"/></g><g transform="translate(168 108)"><rect width="93.4" height="11.675" transform="translate(477 319.862)" fill="#fff"/><rect width="93.4" height="11.675" transform="translate(529.537 279) rotate(90)" fill="#fff"/></g><g transform="translate(297 108)"><rect width="93.4" height="11.675" transform="translate(477 319.862)" fill="#fff"/><rect width="93.4" height="11.675" transform="translate(529.537 279) rotate(90)" fill="#fff"/></g><g transform="translate(426 108)"><rect width="93.4" height="11.675" transform="translate(477 319.862)" fill="#fff"/><rect width="93.4" height="11.675" transform="translate(529.537 279) rotate(90)" fill="#fff"/></g><g transform="translate(-477 237)"><rect width="93.4" height="11.675" transform="translate(477 319.862)" fill="#fff"/><rect width="93.4" height="11.675" transform="translate(529.537 279) rotate(90)" fill="#fff"/></g><g transform="translate(-348 237)"><rect width="93.4" height="11.675" transform="translate(477 319.862)" fill="#fff"/><rect width="93.4" height="11.675" transform="translate(529.537 279) rotate(90)" fill="#fff"/></g><g transform="translate(-219 237)"><rect width="93.4" height="11.675" transform="translate(477 319.862)" fill="#fff"/><rect width="93.4" height="11.675" transform="translate(529.537 279) rotate(90)" fill="#fff"/></g><g transform="translate(-90 237)"><rect width="93.4" height="11.675" transform="translate(477 319.862)" fill="#fff"/><rect width="93.4" height="11.675" transform="translate(529.537 279) rotate(90)" fill="#fff"/></g><g transform="translate(39 237)"><rect width="93.4" height="11.675" transform="translate(477 319.862)" fill="#fff"/><rect width="93.4" height="11.675" transform="translate(529.537 279) rotate(90)" fill="#fff"/></g><g transform="translate(168 237)"><rect width="93.4" height="11.675" transform="translate(477 319.862)" fill="#fff"/><rect width="93.4" height="11.675" transform="translate(529.537 279) rotate(90)" fill="#fff"/></g><g transform="translate(297 237)"><rect width="93.4" height="11.675" transform="translate(477 319.862)" fill="#fff"/><rect width="93.4" height="11.675" transform="translate(529.537 279) rotate(90)" fill="#fff"/></g><g transform="translate(426 237)"><rect width="93.4" height="11.675" transform="translate(477 319.862)" fill="#fff"/><rect width="93.4" height="11.675" transform="translate(529.537 279) rotate(90)" fill="#fff"/></g><g transform="translate(-477 366)"><rect width="93.4" height="11.675" transform="translate(477 319.862)" fill="#fff"/><rect width="93.4" height="11.675" transform="translate(529.537 279) rotate(90)" fill="#fff"/></g><g transform="translate(-348 366)"><rect width="93.4" height="11.675" transform="translate(477 319.862)" fill="#fff"/><rect width="93.4" height="11.675" transform="translate(529.537 279) rotate(90)" fill="#fff"/></g><g transform="translate(-219 366)"><rect width="93.4" height="11.675" transform="translate(477 319.862)" fill="#fff"/><rect width="93.4" height="11.675" transform="translate(529.537 279) rotate(90)" fill="#fff"/></g><g transform="translate(-90 366)"><rect width="93.4" height="11.675" transform="translate(477 319.862)" fill="#fff"/><rect width="93.4" height="11.675" transform="translate(529.537 279) rotate(90)" fill="#fff"/></g><g transform="translate(39 366)"><rect width="93.4" height="11.675" transform="translate(477 319.862)" fill="#fff"/><rect width="93.4" height="11.675" transform="translate(529.537 279) rotate(90)" fill="#fff"/></g><g transform="translate(168 366)"><rect width="93.4" height="11.675" transform="translate(477 319.862)" fill="#fff"/><rect width="93.4" height="11.675" transform="translate(529.537 279) rotate(90)" fill="#fff"/></g><g transform="translate(297 366)"><rect width="93.4" height="11.675" transform="translate(477 319.862)" fill="#fff"/><rect width="93.4" height="11.675" transform="translate(529.537 279) rotate(90)" fill="#fff"/></g><g transform="translate(426 366)"><rect width="93.4" height="11.675" transform="translate(477 319.862)" fill="#fff"/><rect width="93.4" height="11.675" transform="translate(529.537 279) rotate(90)" fill="#fff"/></g><g transform="translate(-477 495)"><rect width="93.4" height="11.675" transform="translate(477 319.862)" fill="#fff"/><rect width="93.4" height="11.675" transform="translate(529.537 279) rotate(90)" fill="#fff"/></g><g transform="translate(-348 495)"><rect width="93.4" height="11.675" transform="translate(477 319.862)" fill="#fff"/><rect width="93.4" height="11.675" transform="translate(529.537 279) rotate(90)" fill="#fff"/></g><g transform="translate(-219 495)"><rect width="93.4" height="11.675" transform="translate(477 319.862)" fill="#fff"/><rect width="93.4" height="11.675" transform="translate(529.537 279) rotate(90)" fill="#fff"/></g><g transform="translate(-90 495)"><rect width="93.4" height="11.675" transform="translate(477 319.862)" fill="#fff"/><rect width="93.4" height="11.675" transform="translate(529.537 279) rotate(90)" fill="#fff"/></g><g transform="translate(39 495)"><rect width="93.4" height="11.675" transform="translate(477 319.862)" fill="#fff"/><rect width="93.4" height="11.675" transform="translate(529.537 279) rotate(90)" fill="#fff"/></g><g transform="translate(168 495)"><rect width="93.4" height="11.675" transform="translate(477 319.862)" fill="#fff"/><rect width="93.4" height="11.675" transform="translate(529.537 279) rotate(90)" fill="#fff"/></g><g transform="translate(297 495)"><rect width="93.4" height="11.675" transform="translate(477 319.862)" fill="#fff"/><rect width="93.4" height="11.675" transform="translate(529.537 279) rotate(90)" fill="#fff"/></g><g transform="translate(426 495)"><rect width="93.4" height="11.675" transform="translate(477 319.862)" fill="#fff"/><rect width="93.4" height="11.675" transform="translate(529.537 279) rotate(90)" fill="#fff"/></g><g transform="translate(-477 624)"><rect width="93.4" height="11.675" transform="translate(477 319.862)" fill="#fff"/><rect width="93.4" height="11.675" transform="translate(529.537 279) rotate(90)" fill="#fff"/></g><g transform="translate(-348 624)"><rect width="93.4" height="11.675" transform="translate(477 319.862)" fill="#fff"/><rect width="93.4" height="11.675" transform="translate(529.537 279) rotate(90)" fill="#fff"/></g><g transform="translate(-219 624)"><rect width="93.4" height="11.675" transform="translate(477 319.862)" fill="#fff"/><rect width="93.4" height="11.675" transform="translate(529.537 279) rotate(90)" fill="#fff"/></g><g transform="translate(-90 624)"><rect width="93.4" height="11.675" transform="translate(477 319.862)" fill="#fff"/><rect width="93.4" height="11.675" transform="translate(529.537 279) rotate(90)" fill="#fff"/></g><g transform="translate(39 624)"><rect width="93.4" height="11.675" transform="translate(477 319.862)" fill="#fff"/><rect width="93.4" height="11.675" transform="translate(529.537 279) rotate(90)" fill="#fff"/></g><g transform="translate(168 624)"><rect width="93.4" height="11.675" transform="translate(477 319.862)" fill="#fff"/><rect width="93.4" height="11.675" transform="translate(529.537 279) rotate(90)" fill="#fff"/></g><g transform="translate(297 624)"><rect width="93.4" height="11.675" transform="translate(477 319.862)" fill="#fff"/><rect width="93.4" height="11.675" transform="translate(529.537 279) rotate(90)" fill="#fff"/></g><g transform="translate(426 624)"><rect width="93.4" height="11.675" transform="translate(477 319.862)" fill="#fff"/><rect width="93.4" height="11.675" transform="translate(529.537 279) rotate(90)" fill="#fff"/></g></g></g></svg>