<svg xmlns="http://www.w3.org/2000/svg" xmlns:xlink="http://www.w3.org/1999/xlink" width="1000" height="1000" viewBox="25 29 1000 1000"><defs><clipPath id="a"><rect width="1743" height="1428" fill="none"/></clipPath><clipPath id="c"><rect x="25" y="29" width="1000" height="1000"/></clipPath></defs><g id="b" clip-path="url(#c)"><g transform="translate(435.854 -540.82) rotate(45)" clip-path="url(#a)"><g transform="translate(-477 -279)"><rect width="93.4" height="11.675" transform="translate(477 319.862)" fill="#fff"/><rect width="93.4" height="11.675" transform="translate(529.537 279) rotate(90)" fill="#fff"/></g><g transform="translate(-348 -279)"><rect width="93.4" height="11.675" transform="translate(477 319.862)" fill="#fff"/><rect width="93.4" height="11.675" transform="translate(529.537 279) rotate(90)" fill="#fff"/></g><g transform="translate(-219 -279)"><rect width="93.4" height="11.675" transform="translate(477 319.862)" fill="#fff"/><rect width="93.4" height="11.675" transform="translate(529.537 279) rotate(90)" fill="#fff"/></g><g transform="translate(-90 -279)"><rect width="93.4" height="11.675" transform="translate(477 319.862)" fill="#fff"/><rect width="93.4" height="11.675" transform="translate(529.537 279) rotate(90)" fill="#fff"/></g><g transform="translate(39 -279)"><rect width="93.4" height="11.675" transform="translate(477 319.862)" fill="#fff"/><rect width="93.4" height="11.675" transform="translate(529.537 279) rotate(90)" fill="#fff"/></g><g transform="translate(168 -279)"><rect width="93.4" height="11.675" transform="translate(477 319.862)" fill="#fff"/><rect width="93.4" height="11.675" transform="translate(529.537 279) rotate(90)" fill="#fff"/></g><g transform="translate(297 -279)"><rect width="93.4" height="11.675" transform="translate(477 319.862)" fill="#fff"/><rect width="93.4" height="11.675" transform="translate(529.537 279) rotate(90)" fill="#fff"/></g><g transform="translate(426 -279)"><rect width="93.4" height="11.675" transform="translate(477 319.862)" fill="#fff"/><rect width="93.4" height="11.675" transform="translate(529.537 279) rotate(90)" fill="#fff"/></g><g transform="translate(555 -279)"><rect width="93.4" height="11.675" transform="translate(477 319.862)" fill="#fff"/><rect width="93.4" height="11.675" transform="translate(529.537 279) rotate(90)" fill="#fff"/></g><g transform="translate(684 -279)"><rect width="93.4" height="11.675" transform="translate(477 319.862)" fill="#fff"/><rect width="93.4" height="11.675" transform="translate(529.537 279) rotate(90)" fill="#fff"/></g><g transform="translate(813 -279)"><rect width="93.4" height="11.675" transform="translate(477 319.862)" fill="#fff"/><rect width="93.4" height="11.675" transform="translate(529.537 279) rotate(90)" fill="#fff"/></g><g transform="translate(942 -279)"><rect width="93.4" height="11.675" transform="translate(477 319.862)" fill="#fff"/><rect width="93.4" height="11.675" transform="translate(529.537 279) rotate(90)" fill="#fff"/></g><g transform="translate(1071 -279)"><rect width="93.4" height="11.675" transform="translate(477 319.862)" fill="#fff"/><rect width="93.4" height="11.675" transform="translate(529.537 279) rotate(90)" fill="#fff"/></g><g transform="translate(1200 -279)"><rect width="93.4" height="11.675" transform="translate(477 319.862)" fill="#fff"/><rect width="93.4" height="11.675" transform="translate(529.537 279) rotate(90)" fill="#fff"/></g><g transform="translate(-477 -150)"><rect width="93.4" height="11.675" transform="translate(477 319.862)" fill="#fff"/><rect width="93.4" height="11.675" transform="translate(529.537 279) rotate(90)" fill="#fff"/></g><g transform="translate(-348 -150)"><rect width="93.4" height="11.675" transform="translate(477 319.862)" fill="#fff"/><rect width="93.4" height="11.675" transform="translate(529.537 279) rotate(90)" fill="#fff"/></g><g transform="translate(-219 -150)"><rect width="93.4" height="11.675" transform="translate(477 319.862)" fill="#fff"/><rect width="93.4" height="11.675" transform="translate(529.537 279) rotate(90)" fill="#fff"/></g><g transform="translate(-90 -150)"><rect width="93.4" height="11.675" transform="translate(477 319.862)" fill="#fff"/><rect width="93.4" height="11.675" transform="translate(529.537 279) rotate(90)" fill="#fff"/></g><g transform="translate(39 -150)"><rect width="93.4" height="11.675" transform="translate(477 319.862)" fill="#fff"/><rect width="93.4" height="11.675" transform="translate(529.537 279) rotate(90)" fill="#fff"/></g><g transform="translate(168 -150)"><rect width="93.4" height="11.675" transform="translate(477 319.862)" fill="#fff"/><rect width="93.4" height="11.675" transform="translate(529.537 279) rotate(90)" fill="#fff"/></g><g transform="translate(297 -150)"><rect width="93.4" height="11.675" transform="translate(477 319.862)" fill="#fff"/><rect width="93.4" height="11.675" transform="translate(529.537 279) rotate(90)" fill="#fff"/></g><g transform="translate(426 -150)"><rect width="93.4" height="11.675" transform="translate(477 319.862)" fill="#fff"/><rect width="93.4" height="11.675" transform="translate(529.537 279) rotate(90)" fill="#fff"/></g><g transform="translate(555 -150)"><rect width="93.4" height="11.675" transform="translate(477 319.862)" fill="#fff"/><rect width="93.4" height="11.675" transform="translate(529.537 279) rotate(90)" fill="#fff"/></g><g transform="translate(684 -150)"><rect width="93.4" height="11.675" transform="translate(477 319.862)" fill="#fff"/><rect width="93.4" height="11.675" transform="translate(529.537 279) rotate(90)" fill="#fff"/></g><g transform="translate(813 -150)"><rect width="93.4" height="11.675" transform="translate(477 319.862)" fill="#fff"/><rect width="93.4" height="11.675" transform="translate(529.537 279) rotate(90)" fill="#fff"/></g><g transform="translate(942 -150)"><rect width="93.4" height="11.675" transform="translate(477 319.862)" fill="#fff"/><rect width="93.4" height="11.675" transform="translate(529.537 279) rotate(90)" fill="#fff"/></g><g transform="translate(1071 -150)"><rect width="93.4" height="11.675" transform="translate(477 319.862)" fill="#fff"/><rect width="93.4" height="11.675" transform="translate(529.537 279) rotate(90)" fill="#fff"/></g><g transform="translate(1200 -150)"><rect width="93.4" height="11.675" transform="translate(477 319.862)" fill="#fff"/><rect width="93.4" height="11.675" transform="translate(529.537 279) rotate(90)" fill="#fff"/></g><g transform="translate(-477 -21)"><rect width="93.4" height="11.675" transform="translate(477 319.862)" fill="#fff"/><rect width="93.4" height="11.675" transform="translate(529.537 279) rotate(90)" fill="#fff"/></g><g transform="translate(-348 -21)"><rect width="93.4" height="11.675" transform="translate(477 319.862)" fill="#fff"/><rect width="93.4" height="11.675" transform="translate(529.537 279) rotate(90)" fill="#fff"/></g><g transform="translate(-219 -21)"><rect width="93.4" height="11.675" transform="translate(477 319.862)" fill="#fff"/><rect width="93.4" height="11.675" transform="translate(529.537 279) rotate(90)" fill="#fff"/></g><g transform="translate(-90 -21)"><rect width="93.4" height="11.675" transform="translate(477 319.862)" fill="#fff"/><rect width="93.4" height="11.675" transform="translate(529.537 279) rotate(90)" fill="#fff"/></g><g transform="translate(39 -21)"><rect width="93.4" height="11.675" transform="translate(477 319.862)" fill="#fff"/><rect width="93.4" height="11.675" transform="translate(529.537 279) rotate(90)" fill="#fff"/></g><g transform="translate(168 -21)"><rect width="93.4" height="11.675" transform="translate(477 319.862)" fill="#fff"/><rect width="93.4" height="11.675" transform="translate(529.537 279) rotate(90)" fill="#fff"/></g><g transform="translate(297 -21)"><rect width="93.4" height="11.675" transform="translate(477 319.862)" fill="#fff"/><rect width="93.4" height="11.675" transform="translate(529.537 279) rotate(90)" fill="#fff"/></g><g transform="translate(426 -21)"><rect width="93.4" height="11.675" transform="translate(477 319.862)" fill="#fff"/><rect width="93.4" height="11.675" transform="translate(529.537 279) rotate(90)" fill="#fff"/></g><g transform="translate(555 -21)"><rect width="93.4" height="11.675" transform="translate(477 319.862)" fill="#fff"/><rect width="93.4" height="11.675" transform="translate(529.537 279) rotate(90)" fill="#fff"/></g><g transform="translate(684 -21)"><rect width="93.4" height="11.675" transform="translate(477 319.862)" fill="#fff"/><rect width="93.4" height="11.675" transform="translate(529.537 279) rotate(90)" fill="#fff"/></g><g transform="translate(813 -21)"><rect width="93.4" height="11.675" transform="translate(477 319.862)" fill="#fff"/><rect width="93.4" height="11.675" transform="translate(529.537 279) rotate(90)" fill="#fff"/></g><g transform="translate(942 -21)"><rect width="93.4" height="11.675" transform="translate(477 319.862)" fill="#fff"/><rect width="93.4" height="11.675" transform="translate(529.537 279) rotate(90)" fill="#fff"/></g><g transform="translate(1071 -21)"><rect width="93.4" height="11.675" transform="translate(477 319.862)" fill="#fff"/><rect width="93.4" height="11.675" transform="translate(529.537 279) rotate(90)" fill="#fff"/></g><g transform="translate(1200 -21)"><rect width="93.4" height="11.675" transform="translate(477 319.862)" fill="#fff"/><rect width="93.4" height="11.675" transform="translate(529.537 279) rotate(90)" fill="#fff"/></g><g transform="translate(-477 108)"><rect width="93.4" height="11.675" transform="translate(477 319.862)" fill="#fff"/><rect width="93.4" height="11.675" transform="translate(529.537 279) rotate(90)" fill="#fff"/></g><g transform="translate(-348 108)"><rect width="93.4" height="11.675" transform="translate(477 319.862)" fill="#fff"/><rect width="93.4" height="11.675" transform="translate(529.537 279) rotate(90)" fill="#fff"/></g><g transform="translate(-219 108)"><rect width="93.4" height="11.675" transform="translate(477 319.862)" fill="#fff"/><rect width="93.4" height="11.675" transform="translate(529.537 279) rotate(90)" fill="#fff"/></g><g transform="translate(-90 108)"><rect width="93.4" height="11.675" transform="translate(477 319.862)" fill="#fff"/><rect width="93.4" height="11.675" transform="translate(529.537 279) rotate(90)" fill="#fff"/></g><g transform="translate(39 108)"><rect width="93.4" height="11.675" transform="translate(477 319.862)" fill="#fff"/><rect width="93.4" height="11.675" transform="translate(529.537 279) rotate(90)" fill="#fff"/></g><g transform="translate(168 108)"><rect width="93.4" height="11.675" transform="translate(477 319.862)" fill="#fff"/><rect width="93.4" height="11.675" transform="translate(529.537 279) rotate(90)" fill="#fff"/></g><g transform="translate(297 108)"><rect width="93.4" height="11.675" transform="translate(477 319.862)" fill="#fff"/><rect width="93.4" height="11.675" transform="translate(529.537 279) rotate(90)" fill="#fff"/></g><g transform="translate(426 108)"><rect width="93.4" height="11.675" transform="translate(477 319.862)" fill="#fff"/><rect width="93.4" height="11.675" transform="translate(529.537 279) rotate(90)" fill="#fff"/></g><g transform="translate(555 108)"><rect width="93.4" height="11.675" transform="translate(477 319.862)" fill="#fff"/><rect width="93.4" height="11.675" transform="translate(529.537 279) rotate(90)" fill="#fff"/></g><g transform="translate(684 108)"><rect width="93.4" height="11.675" transform="translate(477 319.862)" fill="#fff"/><rect width="93.4" height="11.675" transform="translate(529.537 279) rotate(90)" fill="#fff"/></g><g transform="translate(813 108)"><rect width="93.4" height="11.675" transform="translate(477 319.862)" fill="#fff"/><rect width="93.4" height="11.675" transform="translate(529.537 279) rotate(90)" fill="#fff"/></g><g transform="translate(942 108)"><rect width="93.4" height="11.675" transform="translate(477 319.862)" fill="#fff"/><rect width="93.4" height="11.675" transform="translate(529.537 279) rotate(90)" fill="#fff"/></g><g transform="translate(1071 108)"><rect width="93.4" height="11.675" transform="translate(477 319.862)" fill="#fff"/><rect width="93.4" height="11.675" transform="translate(529.537 279) rotate(90)" fill="#fff"/></g><g transform="translate(1200 108)"><rect width="93.4" height="11.675" transform="translate(477 319.862)" fill="#fff"/><rect width="93.4" height="11.675" transform="translate(529.537 279) rotate(90)" fill="#fff"/></g><g transform="translate(-477 237)"><rect width="93.4" height="11.675" transform="translate(477 319.862)" fill="#fff"/><rect width="93.4" height="11.675" transform="translate(529.537 279) rotate(90)" fill="#fff"/></g><g transform="translate(-348 237)"><rect width="93.4" height="11.675" transform="translate(477 319.862)" fill="#fff"/><rect width="93.4" height="11.675" transform="translate(529.537 279) rotate(90)" fill="#fff"/></g><g transform="translate(-219 237)"><rect width="93.4" height="11.675" transform="translate(477 319.862)" fill="#fff"/><rect width="93.4" height="11.675" transform="translate(529.537 279) rotate(90)" fill="#fff"/></g><g transform="translate(-90 237)"><rect width="93.4" height="11.675" transform="translate(477 319.862)" fill="#fff"/><rect width="93.4" height="11.675" transform="translate(529.537 279) rotate(90)" fill="#fff"/></g><g transform="translate(39 237)"><rect width="93.4" height="11.675" transform="translate(477 319.862)" fill="#fff"/><rect width="93.4" height="11.675" transform="translate(529.537 279) rotate(90)" fill="#fff"/></g><g transform="translate(168 237)"><rect width="93.4" height="11.675" transform="translate(477 319.862)" fill="#fff"/><rect width="93.4" height="11.675" transform="translate(529.537 279) rotate(90)" fill="#fff"/></g><g transform="translate(297 237)"><rect width="93.4" height="11.675" transform="translate(477 319.862)" fill="#fff"/><rect width="93.4" height="11.675" transform="translate(529.537 279) rotate(90)" fill="#fff"/></g><g transform="translate(426 237)"><rect width="93.4" height="11.675" transform="translate(477 319.862)" fill="#fff"/><rect width="93.4" height="11.675" transform="translate(529.537 279) rotate(90)" fill="#fff"/></g><g transform="translate(555 237)"><rect width="93.4" height="11.675" transform="translate(477 319.862)" fill="#fff"/><rect width="93.4" height="11.675" transform="translate(529.537 279) rotate(90)" fill="#fff"/></g><g transform="translate(684 237)"><rect width="93.4" height="11.675" transform="translate(477 319.862)" fill="#fff"/><rect width="93.4" height="11.675" transform="translate(529.537 279) rotate(90)" fill="#fff"/></g><g transform="translate(813 237)"><rect width="93.4" height="11.675" transform="translate(477 319.862)" fill="#fff"/><rect width="93.4" height="11.675" transform="translate(529.537 279) rotate(90)" fill="#fff"/></g><g transform="translate(942 237)"><rect width="93.4" height="11.675" transform="translate(477 319.862)" fill="#fff"/><rect width="93.4" height="11.675" transform="translate(529.537 279) rotate(90)" fill="#fff"/></g><g transform="translate(1071 237)"><rect width="93.4" height="11.675" transform="translate(477 319.862)" fill="#fff"/><rect width="93.4" height="11.675" transform="translate(529.537 279) rotate(90)" fill="#fff"/></g><g transform="translate(1200 237)"><rect width="93.4" height="11.675" transform="translate(477 319.862)" fill="#fff"/><rect width="93.4" height="11.675" transform="translate(529.537 279) rotate(90)" fill="#fff"/></g><g transform="translate(-477 366)"><rect width="93.4" height="11.675" transform="translate(477 319.862)" fill="#fff"/><rect width="93.4" height="11.675" transform="translate(529.537 279) rotate(90)" fill="#fff"/></g><g transform="translate(-348 366)"><rect width="93.4" height="11.675" transform="translate(477 319.862)" fill="#fff"/><rect width="93.4" height="11.675" transform="translate(529.537 279) rotate(90)" fill="#fff"/></g><g transform="translate(-219 366)"><rect width="93.4" height="11.675" transform="translate(477 319.862)" fill="#fff"/><rect width="93.4" height="11.675" transform="translate(529.537 279) rotate(90)" fill="#fff"/></g><g transform="translate(-90 366)"><rect width="93.4" height="11.675" transform="translate(477 319.862)" fill="#fff"/><rect width="93.4" height="11.675" transform="translate(529.537 279) rotate(90)" fill="#fff"/></g><g transform="translate(39 366)"><rect width="93.4" height="11.675" transform="translate(477 319.862)" fill="#fff"/><rect width="93.4" height="11.675" transform="translate(529.537 279) rotate(90)" fill="#fff"/></g><g transform="translate(168 366)"><rect width="93.4" height="11.675" transform="translate(477 319.862)" fill="#fff"/><rect width="93.4" height="11.675" transform="translate(529.537 279) rotate(90)" fill="#fff"/></g><g transform="translate(297 366)"><rect width="93.4" height="11.675" transform="translate(477 319.862)" fill="#fff"/><rect width="93.4" height="11.675" transform="translate(529.537 279) rotate(90)" fill="#fff"/></g><g transform="translate(426 366)"><rect width="93.4" height="11.675" transform="translate(477 319.862)" fill="#fff"/><rect width="93.4" height="11.675" transform="translate(529.537 279) rotate(90)" fill="#fff"/></g><g transform="translate(555 366)"><rect width="93.4" height="11.675" transform="translate(477 319.862)" fill="#fff"/><rect width="93.4" height="11.675" transform="translate(529.537 279) rotate(90)" fill="#fff"/></g><g transform="translate(684 366)"><rect width="93.4" height="11.675" transform="translate(477 319.862)" fill="#fff"/><rect width="93.4" height="11.675" transform="translate(529.537 279) rotate(90)" fill="#fff"/></g><g transform="translate(813 366)"><rect width="93.4" height="11.675" transform="translate(477 319.862)" fill="#fff"/><rect width="93.4" height="11.675" transform="translate(529.537 279) rotate(90)" fill="#fff"/></g><g transform="translate(942 366)"><rect width="93.4" height="11.675" transform="translate(477 319.862)" fill="#fff"/><rect width="93.4" height="11.675" transform="translate(529.537 279) rotate(90)" fill="#fff"/></g><g transform="translate(1071 366)"><rect width="93.4" height="11.675" transform="translate(477 319.862)" fill="#fff"/><rect width="93.4" height="11.675" transform="translate(529.537 279) rotate(90)" fill="#fff"/></g><g transform="translate(1200 366)"><rect width="93.4" height="11.675" transform="translate(477 319.862)" fill="#fff"/><rect width="93.4" height="11.675" transform="translate(529.537 279) rotate(90)" fill="#fff"/></g><g transform="translate(-477 495)"><rect width="93.4" height="11.675" transform="translate(477 319.862)" fill="#fff"/><rect width="93.4" height="11.675" transform="translate(529.537 279) rotate(90)" fill="#fff"/></g><g transform="translate(-348 495)"><rect width="93.4" height="11.675" transform="translate(477 319.862)" fill="#fff"/><rect width="93.4" height="11.675" transform="translate(529.537 279) rotate(90)" fill="#fff"/></g><g transform="translate(-219 495)"><rect width="93.4" height="11.675" transform="translate(477 319.862)" fill="#fff"/><rect width="93.4" height="11.675" transform="translate(529.537 279) rotate(90)" fill="#fff"/></g><g transform="translate(-90 495)"><rect width="93.4" height="11.675" transform="translate(477 319.862)" fill="#fff"/><rect width="93.4" height="11.675" transform="translate(529.537 279) rotate(90)" fill="#fff"/></g><g transform="translate(39 495)"><rect width="93.4" height="11.675" transform="translate(477 319.862)" fill="#fff"/><rect width="93.4" height="11.675" transform="translate(529.537 279) rotate(90)" fill="#fff"/></g><g transform="translate(168 495)"><rect width="93.4" height="11.675" transform="translate(477 319.862)" fill="#fff"/><rect width="93.4" height="11.675" transform="translate(529.537 279) rotate(90)" fill="#fff"/></g><g transform="translate(297 495)"><rect width="93.4" height="11.675" transform="translate(477 319.862)" fill="#fff"/><rect width="93.4" height="11.675" transform="translate(529.537 279) rotate(90)" fill="#fff"/></g><g transform="translate(426 495)"><rect width="93.4" height="11.675" transform="translate(477 319.862)" fill="#fff"/><rect width="93.4" height="11.675" transform="translate(529.537 279) rotate(90)" fill="#fff"/></g><g transform="translate(555 495)"><rect width="93.4" height="11.675" transform="translate(477 319.862)" fill="#fff"/><rect width="93.4" height="11.675" transform="translate(529.537 279) rotate(90)" fill="#fff"/></g><g transform="translate(684 495)"><rect width="93.4" height="11.675" transform="translate(477 319.862)" fill="#fff"/><rect width="93.4" height="11.675" transform="translate(529.537 279) rotate(90)" fill="#fff"/></g><g transform="translate(813 495)"><rect width="93.4" height="11.675" transform="translate(477 319.862)" fill="#fff"/><rect width="93.4" height="11.675" transform="translate(529.537 279) rotate(90)" fill="#fff"/></g><g transform="translate(942 495)"><rect width="93.4" height="11.675" transform="translate(477 319.862)" fill="#fff"/><rect width="93.4" height="11.675" transform="translate(529.537 279) rotate(90)" fill="#fff"/></g><g transform="translate(1071 495)"><rect width="93.4" height="11.675" transform="translate(477 319.862)" fill="#fff"/><rect width="93.4" height="11.675" transform="translate(529.537 279) rotate(90)" fill="#fff"/></g><g transform="translate(1200 495)"><rect width="93.4" height="11.675" transform="translate(477 319.862)" fill="#fff"/><rect width="93.4" height="11.675" transform="translate(529.537 279) rotate(90)" fill="#fff"/></g><g transform="translate(-477 624)"><rect width="93.4" height="11.675" transform="translate(477 319.862)" fill="#fff"/><rect width="93.4" height="11.675" transform="translate(529.537 279) rotate(90)" fill="#fff"/></g><g transform="translate(-348 624)"><rect width="93.4" height="11.675" transform="translate(477 319.862)" fill="#fff"/><rect width="93.4" height="11.675" transform="translate(529.537 279) rotate(90)" fill="#fff"/></g><g transform="translate(-219 624)"><rect width="93.4" height="11.675" transform="translate(477 319.862)" fill="#fff"/><rect width="93.4" height="11.675" transform="translate(529.537 279) rotate(90)" fill="#fff"/></g><g transform="translate(-90 624)"><rect width="93.4" height="11.675" transform="translate(477 319.862)" fill="#fff"/><rect width="93.4" height="11.675" transform="translate(529.537 279) rotate(90)" fill="#fff"/></g><g transform="translate(39 624)"><rect width="93.4" height="11.675" transform="translate(477 319.862)" fill="#fff"/><rect width="93.4" height="11.675" transform="translate(529.537 279) rotate(90)" fill="#fff"/></g><g transform="translate(168 624)"><rect width="93.4" height="11.675" transform="translate(477 319.862)" fill="#fff"/><rect width="93.4" height="11.675" transform="translate(529.537 279) rotate(90)" fill="#fff"/></g><g transform="translate(297 624)"><rect width="93.4" height="11.675" transform="translate(477 319.862)" fill="#fff"/><rect width="93.4" height="11.675" transform="translate(529.537 279) rotate(90)" fill="#fff"/></g><g transform="translate(426 624)"><rect width="93.4" height="11.675" transform="translate(477 319.862)" fill="#fff"/><rect width="93.4" height="11.675" transform="translate(529.537 279) rotate(90)" fill="#fff"/></g><g transform="translate(555 624)"><rect width="93.4" height="11.675" transform="translate(477 319.862)" fill="#fff"/><rect width="93.4" height="11.675" transform="translate(529.537 279) rotate(90)" fill="#fff"/></g><g transform="translate(684 624)"><rect width="93.4" height="11.675" transform="translate(477 319.862)" fill="#fff"/><rect width="93.4" height="11.675" transform="translate(529.537 279) rotate(90)" fill="#fff"/></g><g transform="translate(813 624)"><rect width="93.4" height="11.675" transform="translate(477 319.862)" fill="#fff"/><rect width="93.4" height="11.675" transform="translate(529.537 279) rotate(90)" fill="#fff"/></g><g transform="translate(942 624)"><rect width="93.4" height="11.675" transform="translate(477 319.862)" fill="#fff"/><rect width="93.4" height="11.675" transform="translate(529.537 279) rotate(90)" fill="#fff"/></g><g transform="translate(1071 624)"><rect width="93.4" height="11.675" transform="translate(477 319.862)" fill="#fff"/><rect width="93.4" height="11.675" transform="translate(529.537 279) rotate(90)" fill="#fff"/></g><g transform="translate(1200 624)"><rect width="93.4" height="11.675" transform="translate(477 319.862)" fill="#fff"/><rect width="93.4" height="11.675" transform="translate(529.537 279) rotate(90)" fill="#fff"/></g><g transform="translate(-477 753)"><rect width="93.4" height="11.675" transform="translate(477 319.862)" fill="#fff"/><rect width="93.4" height="11.675" transform="translate(529.537 279) rotate(90)" fill="#fff"/></g><g transform="translate(-348 753)"><rect width="93.4" height="11.675" transform="translate(477 319.862)" fill="#fff"/><rect width="93.4" height="11.675" transform="translate(529.537 279) rotate(90)" fill="#fff"/></g><g transform="translate(-219 753)"><rect width="93.4" height="11.675" transform="translate(477 319.862)" fill="#fff"/><rect width="93.4" height="11.675" transform="translate(529.537 279) rotate(90)" fill="#fff"/></g><g transform="translate(-90 753)"><rect width="93.4" height="11.675" transform="translate(477 319.862)" fill="#fff"/><rect width="93.4" height="11.675" transform="translate(529.537 279) rotate(90)" fill="#fff"/></g><g transform="translate(39 753)"><rect width="93.4" height="11.675" transform="translate(477 319.862)" fill="#fff"/><rect width="93.4" height="11.675" transform="translate(529.537 279) rotate(90)" fill="#fff"/></g><g transform="translate(168 753)"><rect width="93.4" height="11.675" transform="translate(477 319.862)" fill="#fff"/><rect width="93.4" height="11.675" transform="translate(529.537 279) rotate(90)" fill="#fff"/></g><g transform="translate(297 753)"><rect width="93.4" height="11.675" transform="translate(477 319.862)" fill="#fff"/><rect width="93.4" height="11.675" transform="translate(529.537 279) rotate(90)" fill="#fff"/></g><g transform="translate(426 753)"><rect width="93.4" height="11.675" transform="translate(477 319.862)" fill="#fff"/><rect width="93.4" height="11.675" transform="translate(529.537 279) rotate(90)" fill="#fff"/></g><g transform="translate(555 753)"><rect width="93.4" height="11.675" transform="translate(477 319.862)" fill="#fff"/><rect width="93.4" height="11.675" transform="translate(529.537 279) rotate(90)" fill="#fff"/></g><g transform="translate(684 753)"><rect width="93.4" height="11.675" transform="translate(477 319.862)" fill="#fff"/><rect width="93.4" height="11.675" transform="translate(529.537 279) rotate(90)" fill="#fff"/></g><g transform="translate(813 753)"><rect width="93.4" height="11.675" transform="translate(477 319.862)" fill="#fff"/><rect width="93.4" height="11.675" transform="translate(529.537 279) rotate(90)" fill="#fff"/></g><g transform="translate(942 753)"><rect width="93.4" height="11.675" transform="translate(477 319.862)" fill="#fff"/><rect width="93.4" height="11.675" transform="translate(529.537 279) rotate(90)" fill="#fff"/></g><g transform="translate(1071 753)"><rect width="93.4" height="11.675" transform="translate(477 319.862)" fill="#fff"/><rect width="93.4" height="11.675" transform="translate(529.537 279) rotate(90)" fill="#fff"/></g><g transform="translate(1200 753)"><rect width="93.4" height="11.675" transform="translate(477 319.862)" fill="#fff"/><rect width="93.4" height="11.675" transform="translate(529.537 279) rotate(90)" fill="#fff"/></g><g transform="translate(-477 882)"><rect width="93.4" height="11.675" transform="translate(477 319.862)" fill="#fff"/><rect width="93.4" height="11.675" transform="translate(529.537 279) rotate(90)" fill="#fff"/></g><g transform="translate(-348 882)"><rect width="93.4" height="11.675" transform="translate(477 319.862)" fill="#fff"/><rect width="93.4" height="11.675" transform="translate(529.537 279) rotate(90)" fill="#fff"/></g><g transform="translate(-219 882)"><rect width="93.4" height="11.675" transform="translate(477 319.862)" fill="#fff"/><rect width="93.4" height="11.675" transform="translate(529.537 279) rotate(90)" fill="#fff"/></g><g transform="translate(-90 882)"><rect width="93.4" height="11.675" transform="translate(477 319.862)" fill="#fff"/><rect width="93.4" height="11.675" transform="translate(529.537 279) rotate(90)" fill="#fff"/></g><g transform="translate(39 882)"><rect width="93.4" height="11.675" transform="translate(477 319.862)" fill="#fff"/><rect width="93.4" height="11.675" transform="translate(529.537 279) rotate(90)" fill="#fff"/></g><g transform="translate(168 882)"><rect width="93.4" height="11.675" transform="translate(477 319.862)" fill="#fff"/><rect width="93.4" height="11.675" transform="translate(529.537 279) rotate(90)" fill="#fff"/></g><g transform="translate(297 882)"><rect width="93.4" height="11.675" transform="translate(477 319.862)" fill="#fff"/><rect width="93.4" height="11.675" transform="translate(529.537 279) rotate(90)" fill="#fff"/></g><g transform="translate(426 882)"><rect width="93.4" height="11.675" transform="translate(477 319.862)" fill="#fff"/><rect width="93.4" height="11.675" transform="translate(529.537 279) rotate(90)" fill="#fff"/></g><g transform="translate(555 882)"><rect width="93.4" height="11.675" transform="translate(477 319.862)" fill="#fff"/><rect width="93.4" height="11.675" transform="translate(529.537 279) rotate(90)" fill="#fff"/></g><g transform="translate(684 882)"><rect width="93.4" height="11.675" transform="translate(477 319.862)" fill="#fff"/><rect width="93.4" height="11.675" transform="translate(529.537 279) rotate(90)" fill="#fff"/></g><g transform="translate(813 882)"><rect width="93.4" height="11.675" transform="translate(477 319.862)" fill="#fff"/><rect width="93.4" height="11.675" transform="translate(529.537 279) rotate(90)" fill="#fff"/></g><g transform="translate(942 882)"><rect width="93.4" height="11.675" transform="translate(477 319.862)" fill="#fff"/><rect width="93.4" height="11.675" transform="translate(529.537 279) rotate(90)" fill="#fff"/></g><g transform="translate(1071 882)"><rect width="93.4" height="11.675" transform="translate(477 319.862)" fill="#fff"/><rect width="93.4" height="11.675" transform="translate(529.537 279) rotate(90)" fill="#fff"/></g><g transform="translate(1200 882)"><rect width="93.4" height="11.675" transform="translate(477 319.862)" fill="#fff"/><rect width="93.4" height="11.675" transform="translate(529.537 279) rotate(90)" fill="#fff"/></g><g transform="translate(-477 1011)"><rect width="93.4" height="11.675" transform="translate(477 319.862)" fill="#fff"/><rect width="93.4" height="11.675" transform="translate(529.537 279) rotate(90)" fill="#fff"/></g><g transform="translate(-348 1011)"><rect width="93.4" height="11.675" transform="translate(477 319.862)" fill="#fff"/><rect width="93.4" height="11.675" transform="translate(529.537 279) rotate(90)" fill="#fff"/></g><g transform="translate(-219 1011)"><rect width="93.4" height="11.675" transform="translate(477 319.862)" fill="#fff"/><rect width="93.4" height="11.675" transform="translate(529.537 279) rotate(90)" fill="#fff"/></g><g transform="translate(-90 1011)"><rect width="93.4" height="11.675" transform="translate(477 319.862)" fill="#fff"/><rect width="93.4" height="11.675" transform="translate(529.537 279) rotate(90)" fill="#fff"/></g><g transform="translate(39 1011)"><rect width="93.4" height="11.675" transform="translate(477 319.862)" fill="#fff"/><rect width="93.4" height="11.675" transform="translate(529.537 279) rotate(90)" fill="#fff"/></g><g transform="translate(168 1011)"><rect width="93.4" height="11.675" transform="translate(477 319.862)" fill="#fff"/><rect width="93.4" height="11.675" transform="translate(529.537 279) rotate(90)" fill="#fff"/></g><g transform="translate(297 1011)"><rect width="93.4" height="11.675" transform="translate(477 319.862)" fill="#fff"/><rect width="93.4" height="11.675" transform="translate(529.537 279) rotate(90)" fill="#fff"/></g><g transform="translate(426 1011)"><rect width="93.4" height="11.675" transform="translate(477 319.862)" fill="#fff"/><rect width="93.4" height="11.675" transform="translate(529.537 279) rotate(90)" fill="#fff"/></g><g transform="translate(555 1011)"><rect width="93.4" height="11.675" transform="translate(477 319.862)" fill="#fff"/><rect width="93.4" height="11.675" transform="translate(529.537 279) rotate(90)" fill="#fff"/></g><g transform="translate(684 1011)"><rect width="93.4" height="11.675" transform="translate(477 319.862)" fill="#fff"/><rect width="93.4" height="11.675" transform="translate(529.537 279) rotate(90)" fill="#fff"/></g><g transform="translate(813 1011)"><rect width="93.4" height="11.675" transform="translate(477 319.862)" fill="#fff"/><rect width="93.4" height="11.675" transform="translate(529.537 279) rotate(90)" fill="#fff"/></g><g transform="translate(942 1011)"><rect width="93.4" height="11.675" transform="translate(477 319.862)" fill="#fff"/><rect width="93.4" height="11.675" transform="translate(529.537 279) rotate(90)" fill="#fff"/></g><g transform="translate(1071 1011)"><rect width="93.4" height="11.675" transform="translate(477 319.862)" fill="#fff"/><rect width="93.4" height="11.675" transform="translate(529.537 279) rotate(90)" fill="#fff"/></g><g transform="translate(1200 1011)"><rect width="93.4" height="11.675" transform="translate(477 319.862)" fill="#fff"/><rect width="93.4" height="11.675" transform="translate(529.537 279) rotate(90)" fill="#fff"/></g><g transform="translate(-477 1140)"><rect width="93.4" height="11.675" transform="translate(477 319.862)" fill="#fff"/><rect width="93.4" height="11.675" transform="translate(529.537 279) rotate(90)" fill="#fff"/></g><g transform="translate(-348 1140)"><rect width="93.4" height="11.675" transform="translate(477 319.862)" fill="#fff"/><rect width="93.4" height="11.675" transform="translate(529.537 279) rotate(90)" fill="#fff"/></g><g transform="translate(-219 1140)"><rect width="93.4" height="11.675" transform="translate(477 319.862)" fill="#fff"/><rect width="93.4" height="11.675" transform="translate(529.537 279) rotate(90)" fill="#fff"/></g><g transform="translate(-90 1140)"><rect width="93.4" height="11.675" transform="translate(477 319.862)" fill="#fff"/><rect width="93.4" height="11.675" transform="translate(529.537 279) rotate(90)" fill="#fff"/></g><g transform="translate(39 1140)"><rect width="93.4" height="11.675" transform="translate(477 319.862)" fill="#fff"/><rect width="93.4" height="11.675" transform="translate(529.537 279) rotate(90)" fill="#fff"/></g><g transform="translate(168 1140)"><rect width="93.4" height="11.675" transform="translate(477 319.862)" fill="#fff"/><rect width="93.4" height="11.675" transform="translate(529.537 279) rotate(90)" fill="#fff"/></g><g transform="translate(297 1140)"><rect width="93.4" height="11.675" transform="translate(477 319.862)" fill="#fff"/><rect width="93.4" height="11.675" transform="translate(529.537 279) rotate(90)" fill="#fff"/></g><g transform="translate(426 1140)"><rect width="93.4" height="11.675" transform="translate(477 319.862)" fill="#fff"/><rect width="93.4" height="11.675" transform="translate(529.537 279) rotate(90)" fill="#fff"/></g><g transform="translate(555 1140)"><rect width="93.4" height="11.675" transform="translate(477 319.862)" fill="#fff"/><rect width="93.4" height="11.675" transform="translate(529.537 279) rotate(90)" fill="#fff"/></g><g transform="translate(684 1140)"><rect width="93.4" height="11.675" transform="translate(477 319.862)" fill="#fff"/><rect width="93.4" height="11.675" transform="translate(529.537 279) rotate(90)" fill="#fff"/></g><g transform="translate(813 1140)"><rect width="93.4" height="11.675" transform="translate(477 319.862)" fill="#fff"/><rect width="93.4" height="11.675" transform="translate(529.537 279) rotate(90)" fill="#fff"/></g><g transform="translate(942 1140)"><rect width="93.4" height="11.675" transform="translate(477 319.862)" fill="#fff"/><rect width="93.4" height="11.675" transform="translate(529.537 279) rotate(90)" fill="#fff"/></g><g transform="translate(1071 1140)"><rect width="93.4" height="11.675" transform="translate(477 319.862)" fill="#fff"/><rect width="93.4" height="11.675" transform="translate(529.537 279) rotate(90)" fill="#fff"/></g><g transform="translate(1200 1140)"><rect width="93.4" height="11.675" transform="translate(477 319.862)" fill="#fff"/><rect width="93.4" height="11.675" transform="translate(529.537 279) rotate(90)" fill="#fff"/></g></g></g></svg>